# xmcd
#
# Track frame offsets: 
#        150
#        18974
#        33198
#        44758
#        61932
#        75222
#        94657
#        110940
#        123914
#        139177
#        158550
#        174221
#        189835
#        202078
#        216264
#        236023
#        249856
#        266524
#        281112
#        295410
#
# Disc length: 4135 seconds
#
# Revision: 0
# Processed by: cddbd v1.5.2PL0 Copyright (c) Steve Scherf et al.
# Submitted via: ExactAudioCopy v1.0b4
#
DISCID=18102514
DTITLE=Various Artist - Folk Džumbus 1
DYEAR=1900
DGENRE=Country
TTITLE0=Aca Lukas - Lična karta
TTITLE1=Džej Ramadanovski - Mrak, mrak
TTITLE2=Željko Samardžić - Napij se srce
TTITLE3=Haris Džinović - Oprosti, izvini
TTITLE4=Boban Zdravković - Rano je za tugu
TTITLE5=Roki - Žena
TTITLE6=Peca Jovanović - Život mi ne treba
TTITLE7=Željo Šašić - Ti, lutko moja
TTITLE8=Slavko Banjac - Pevaću da te zaboravim
TTITLE9=Marinko Rokvić - Ko ukrade noći boje
TTITLE10=Esad Plavi - Reci srećo
TTITLE11=Šaban Bajramović - Amajlija
TTITLE12=Džej Ramadanovski - Lubenica
TTITLE13=Boban Zdravković - Ciganima srce daću
TTITLE14=Haris Džinović - Poznaću te po meraku
TTITLE15=Džej Ramadanovski - Slažes li se ti
TTITLE16=Marko Bulat - Prijeatelji, braćo kumovi
TTITLE17=Željo Šašić - Gori more
TTITLE18=Zeljko Samardžić - Slutim
TTITLE19=Aca Lukas - Dijabolik
EXTD=
EXTT0=
EXTT1=
EXTT2=
EXTT3=
EXTT4=
EXTT5=
EXTT6=
EXTT7=
EXTT8=
EXTT9=
EXTT10=
EXTT11=
EXTT12=
EXTT13=
EXTT14=
EXTT15=
EXTT16=
EXTT17=
EXTT18=
EXTT19=
PLAYORDER=
